<svg xmlns="http://www.w3.org/2000/svg" viewBox="0 0 458.79 491.5"><title>aba_thuglife</title><path d="M18.29,24.2,33.93,36.35v3l1,1.75,1.57,1.57,1.4,1.49,1.31,1.66,1.66,3,2.71,5.5,2,3.58,2.36,3.32,1.66,2.45.7,1,.7,4.11,1.22,1,1.57.69h.79l1.14.79L57.61,73l1.31,1.49,1.66,1.74L62,77.5l1.57,1.14.61.79.53,1,1.66,1.31,1.74,1L69.4,84l1.14,1,.87,1.31,2.1.79,2.1,1,2,.87,1.92,1,1,.43,1.4.61,1.22,1,1.05,1.31L85,94.54l1.32,1.58.87,1.22,1,1.14a8,8,0,0,1,.87.43l.79.53h.52l.62,1.39v1l1.05.87.87,1,.7,1.13.61.88.52.61.53.7.43.87.53,1.23v1l.61,1.22.53,1.05.52,1.31.79,1.14.78.87.44.52v2.62l.79.7.61.7.35.61v3.41l-.44,1.4.09,1.14-.53,1.31-.26,1.48-.35.53-.09,1.22.09,1.22.7,1,.35,1.23.44,1v1.31l.78.61h.88V137l1-.79.52-1.22v-2.71l-.52-1.4-.44-.87-.44-.79.18-.78.35-.62.52.09.35.79,1.05,1.22.87,1.23.7,1.22.87,1.13.79,1,.79,1,.87.7,1.14,1,.78.61.62.7.69,2.09,1.49,2,1,1.49,1.31,1.31,1,1.22.44,1.05.44,1.58v4.28l.61,1.22h2.1l1.31,1.49,1.39,2.09,1,.79.78.79.79,1.66.35,1.13.78,1.4,1.4,1.92.79,1.57.7,1.75.7,1.4,1.31,2.18,2.79,4.29,1.49,2.27,1.22,1.92,1.49,2.36,1.75,1.57,1.48,1.75.7.79.35,1.66-1.05.35-1.66-1.31-2-2.36L137,182.18,134.41,179l-2.27-2.62-1.75-3.67-1.48-3.93-2.54-3.15-4.28-5.51-2.36-3-1.22-1.84-.87-1.66-1.4-1.57-1-.61-1,.52.44,1.49,1,1.22,1.14,1.31.35,2.71,2,2.36-.18,5.5,1.67,1,1.22.35.87,3.85-.26,3.58-1,3.85-11.88,30.49-.35,1-1,.44h-.87l-1,.79.17,1,1.14.35h3.58l1.93.43,1.48.35h1.22l1.14.53h1l.61-.61v-1l-1.48-.61-1.31-.43a2.18,2.18,0,0,1-.44-.62,13.31,13.31,0,0,1-.17-1.57l.52-1.31.87-1,1.66-1.49,1.66-1.31,1.4-.52,1.66-.53a5,5,0,0,0,.53-1.31,17.28,17.28,0,0,0-.35-1.83,6.55,6.55,0,0,1-.88-1.4c0-.26-.26-1.83-.26-1.83l1.14-1,2-.17.43.26.18,1.57-.44,1-.44,1.13.35,1.92.35,1.75,2,.61,3.24.27,3,.87,3.32,1.57,5.07,3.06,3.58,3,1.48,2.1,3,2.36,1.4,1.66.61,2.27.44,2.53,2.71,3,3.32,2.1,2.53,2,1.58,1.75.61,1.92v2.19h2.1l1.39,1.48,1.49.7,2-.87a7.1,7.1,0,0,0,1.4-1.4,21.07,21.07,0,0,0,.61-3.06l-.88-1.83-1.13-1.32.17-.61a3,3,0,0,0,1.23.44c.52,0,1.13.7,1.13.7l1.23,1.22,1.39,2.1,1.66,1.83,1,1,2.1,1.31,1.31,1.4.79,1.84,2,2.09,2.36.44,1.31.35.7,1.49,1.48,2.23s1.22,1,1.57,1a14.41,14.41,0,0,1,1.93.52l1.48,1.75,1.49,2,1.83,1.66,1.75,1.57.7.88v.7h2.27l.7-.88s.87.09,1.13.09a6.44,6.44,0,0,1,1.4.79,5.51,5.51,0,0,1,1.75,0,8.47,8.47,0,0,0,2.1,0,6.65,6.65,0,0,0,1.22-.88,12.49,12.49,0,0,0,.87-2.27c.09-.44,0-4.81,0-4.81l-8.91-6.9-.61-1.83s.09-1.05.35-1.05a12.94,12.94,0,0,1,1.49.35l1.74,2L208,244s1-.44,1-.7a14.86,14.86,0,0,0-.52-1.75l-1.48-1,.61-.79,1.48-.09a6.19,6.19,0,0,1,1.4.79c.35.35,1.57,1.66,1.57,1.66l1.14,1.22v2.89a1.05,1.05,0,0,0,.35.5c.26.19,1-.85,1-.85l.52-.7,1.31,1.05,1.4-.18,1.22-1.14v-1.74l-1.57-.88L213,238.54l-.18-2.36L208.34,233l-.62-1.57-1.31-2.45.7-1.05,1.14,1.05,1.83,1.14,1.31-.44.44-1.4-1.31-1.75-.61-4.28-.61-1,1.31-.78,3.67-2.62,1.4.26.52.87,1.57-.52.61-1.92-2.88-2.8-4.19-2.36-2.1-1.48v-5.25l1.14-2.09-.09-3.94,1.92-1.39-.09-6.64s-1-1.67-1.05-1.93-.78-1.92-.78-1.92l1.66-1,1.57-.52h2l1.4-.53a11.52,11.52,0,0,1,1.31-.26,8,8,0,0,1,1.48.7l1.23.61,1.48-.52,2.36-2.62a19.94,19.94,0,0,1,1.75-1.23,10.21,10.21,0,0,0,1.4-1.31,11.71,11.71,0,0,0,.7-1.75,16.37,16.37,0,0,1,.78-2l1.31-.08.88,1.31,1.75,1.05,3.58,1.48,4.89,2.27,2.8,1.75,2.36,2.45,2.53,2.62s1,2,1,2.36l.52,2.1,1.23,1,1.31.88.61,1.4,1,1.66,1.31-.53s.87-.7,1.22-.7a4,4,0,0,0,1.23-.61l-.53-1.4L256.31,193,255,190.57l-1.4-2.44-1.4-2.28-.35-2.62.87-1.57s.79-1.4.88-1.66-1-1.31-1-1.31l-1.75-1.4s-.87-1-.87-1.22-.7-3.58-.7-3.58L248,171.17l-2-1.74.61-1.31,1.57-.44,1.66.79,1.75,1.57,1,1.75-.27,1.92-.78.7,1.22,1.74,1.66,1.58,1.22,1.66v3.06l-.78,1.66-.35,1.31,1,1.83,1,2.36,2.54,3.06,3.05,5.94h4a10.88,10.88,0,0,1,1.84,1.4h1.31v-1.92l1-.61,1.31.52s1,2,1.05,2.27,2.53,3.93,2.53,3.93l6.38.53,1.22-.88v-2.09l1.49-2.89,5.77-4.72,3-2.44,1.57-3v-1.4l-1.83-1.57.43-1.05,1.4.09,1-1.58,2.62-1,3.59-.09,3.14-.43a8.49,8.49,0,0,1,1.66-.61,14.28,14.28,0,0,1,2,.61l1,2.62,1.4,3-1,1.14-1.4.52-2.36,1.14-1.49,1.31-.26,1.39,2.71.79,2.71,1.22,3,2.89s3.41-.35,3.85-.35h2.44s1.22-1.14,1.75-1.14,2.45.09,2.45.09l1.39,1-1,1.31-1.22.52.09,1.49-1.23,1.13-1.22.53L322.1,204l3.06.35,3.58-1,6.38-5,3.5-.44,4.54,3.15L347,201l3.32-2.88,2.35-.61,11.45-8.74.79-2.1,1.31-4.54,2.79-6.21,2.1-2,.53-.78.43-1.75.88-1,1.48.87.79.44,2.45-1.66,4-.35,1.4-1.4v-2.62l1.49-1.92s-.53-8.22,0-8.3,1.13-1.4,1.13-1.4V152.3a8.28,8.28,0,0,1-1-1.57,14.69,14.69,0,0,1,1-2l-1-1.92.43-2.89,1.84-4.19H368.15L368,87.47l-2.63-2.63-4-.26-.79-.61-2.1.26L356.88,86l-1.75.7-1.31-1.05-2.1.79-1.31.87L348.32,87l-1.4-.18-1.14.7-1.13-1-3.41-.43-.88-1.14-2.7-.61-1.05-.52-5.33.17-1.84,1.75-6.2-.18a8.19,8.19,0,0,0-1.57-1.05c-.27,0-1.32,1.14-1.32,1.14l-.34,1-1.4.44-1.58.09-9.43,8-1.92.52-4.11-3.06-.26-1.75-2.1-1.66h-9.7l-3.76-12-.43-6.47L284,67.28l-2.1-4.54-1.31-1.31A3.23,3.23,0,0,0,279,62.74c-.69,1-1.31,1-1.31,1l.09-3.06,1.31-.88.88-1.22-1.31-1.48L278.33,54l-3.41-1-3.15-3.85-.08-3.75L270,43.6s-1.31,0-1.48-.35a9.32,9.32,0,0,0-1.31-1.31l-.18-6.73s-4.45-5.85-4.36-6.29-.09-4.72-.09-4.72l-6-15.64S251.15,6.9,250.89,7s-4.72,0-4.72,0L244.6,8.21l-2.71-.61-2.71-1.48-1.66-1.4-1.4-2-.7-.88-1.74,1.23,4.8,7.16v5.86l-3.93-.18-2,1.58-.18,6.29-1.57,1.57-.61,1.49-1.75.69-7.51,12.59-30.76,8.12-1-1.48V39.67l-1.4-4-2.27-2.18-10-.7L172.69,30l-1.75-3.41-1.31-3.14-3.93-4.55-1-1.83,1-.79L164,14.77l-4.63-3.15-.87-1.22L158,8.48s-4.46-4.2-4.46-4.55A40,40,0,0,0,151.45,0h-49l-.17,1.66-15-.35V7.6l-43.17.09L43.89,16l-21.23.09-.88,1.13-2.09,1-3.15.18-1.49.87.9,3.06Z" style="fill:#6abacd"/><path d="M220.57,246.65l-1,1.73-1,.91v1.49l1.39,1h2.45l1.66-.61v-1.13s-.35-1.46,0-1.7,0-1.73,0-1.73h-3.58Z" style="fill:#6abacd"/><polygon points="304.71 194.3 303.32 193.66 302.38 193.66 301.39 193.25 300.46 193.25 299.59 193.25 299.94 194.82 302.15 196.05 302.5 196.81 301.28 197.33 299.24 197.33 297.78 197.56 297.78 198.61 299 199.25 302.04 199.54 302.79 198.79 303.9 197.97 305.59 197.74 306.75 197.39 306.46 195.47 304.71 194.3" style="fill:#6abacd"/><polygon points="204.93 268.34 204.93 269.91 204.93 271.66 205.63 273.58 205.28 281.36 205.28 283.28 207.2 287.21 231.14 287.56 231.75 286.6 230.62 285.2 230.09 284.07 230.97 283.98 232.54 284.94 233.76 285.81 234.99 285.2 235.95 283.37 235.16 282.5 233.59 282.14 232.45 281.8 232.37 281.01 232.8 280.13 232.98 279.26 230.88 277.95 230.27 277.34 231.05 276.55 231.4 275.33 230.97 274.11 230.62 271.31 229.66 270.7 230.27 267.03 228.52 264.58 227.3 263.27 225.29 262.49 223.01 263.1 214.71 263.45 212.88 261.79 211.31 262.22 210.96 264.5 211.04 266.24 209.56 268.17 204.93 268.34" style="fill:#f4d658"/><polygon points="231.84 258.99 233.15 260.91 233.5 262.57 234.81 262.57 235.95 261.79 236.53 260.78 235.95 258.99 235.16 257.42 234.18 256.46 232.28 256.46 231.14 256.89 231.84 258.99" style="fill:#f4d658"/><path d="M229,287.45l-22.26-.35-.29,1.1v6.18l.82,1.8.35,2.68v2l-.58.58-.59,1.34-.52,1.52.52,1.28-.29,1.81-.76.58-.52.93.7.64.64.64-.18,1.11-.23,1.75-.93.4-1.46-.34-.7.34-.75.7v1.17l.29.76.46,1-.75,1.34v3.14l.75,2.1-.29,2.15-.46,1.05-.64,1.4v1.81l.81.7-.17,2.85,2.27,3.15.41,1.34,1.57,2.09,1-.35s.41-1.28.58-1.34a5.7,5.7,0,0,0,.82-.52l1.28.06,4.37,4.42.17,7.52,3.55,8.62.88,4.78.64,1,.06,2.56,2.27,1.28,1,1.57,1.16,2,.18,9.43-1.34,2.39L223,391l-.47,3.2-1,2.74-1.11.41-.75.82.35,3.26-.65.87-.81.93.93,1.23,3,3.14.23,1.4-.17,3.26,1.46,2.62v2.68l1,.53,3,.41,1.05.93,1.16,2.27.82,1.63v1l.58,1.17,3.67,3.37.52,2.33-.29.94-.06.93,1.14,1.22.38,1.17h1.63a5,5,0,0,1,1-.7,9.26,9.26,0,0,0,1.22-.47l1.4.29,1.22.88.88.64,1.11-.58v-2.68l-.82-1.46-4-6.87v-8.33H255v-6.06h17.3v-3l.81-.64V391.78l-2-1.4v-3.09l-1.34-.87-1.63-.53h-1.74s-.82-.75-.82-.93-.35-.87-.17-1,1-.93,1-.93l1.17-.29.87-.76-.64-1.4-.93-1.34-.47-1.57L286,352.34l-6.35-5.48.05-2.5-.29-4L278.5,339l-1.28-1.28-1.86-.18a5.82,5.82,0,0,1-1.17.94l-1.92.64-1.34.05L268.77,336l-.41-1.11s-.81-1-1.22-1-2.1.12-2.1.12l-.69-.93.64-.82,1.34-.23.11-.88-.7-1.22-.81-.76-3.5-.29-1.57-1.28-.82-1.28h-2.33l-.11-2-2.45-3.38-2.21-.06-1.58.53-1.63-1.52-4.83.12-.58-.7L243,317l-.29-1.23a12.55,12.55,0,0,0-1.52-.34c-.29,0-.58,1-.58,1l-1.22.59-.3-1.23-4.13-.17-3.26-2.91-.3-1.52.53-.7,1.11.58.93.47,1.28-.35-.35-1.46-1.28-1.1-.35-1.28-3.38-.47-1.05-1.86-.06-1.17L227.7,303l1.69-1.11,1.4-.81.58-.64-.34-2.28-1.58-.52-1-.7,1-1,1.52-.17-.88-1.63-1.16-.88Z" style="fill:#e593a1"/><path d="M273.14,395.21l3.9,4.14.82.46h1.4l5.59,8.39.76.7h2.09l1.46,1.75.76,1.05h1.22l1.17.87L296,416l.24.87v4.37l1,1.22,1.34.59h1.16l4.95,4.72,1.05.4,1.52.53,6.64,4.66,5,1.75,6.17,2.38,3.61,1.17s3,1.4,3.15,1.46,2.91,1.16,2.91,1.16l1.87,1.92,1.51,1.63,1.81,2.68,1.45,1.4s2,1.4,2.39,1.57l1.92.82,1.52.52,1.51.94,1.93,1.74,1.28,2.1,1.22,1.81,1.81,1.16,1.28,1.05.75,1.51v1.52l-.58.47a3.81,3.81,0,0,0-.76.69,4.28,4.28,0,0,0-.11,1.05l1.45,1,1.87.64,1.75,1.4.64.76v1.69l1.57,1.11,2.1,1.22,1.45.81,1.17.94.81,1.63,1.52,2,.87,1s.47,1,.58,1.16a8.56,8.56,0,0,0,.88,1.46c.17.06.7-.35.93-.41a5.79,5.79,0,0,0,1-.52,3.59,3.59,0,0,0,.53-.64l.46-.47.7-.12a6.89,6.89,0,0,0,.93.94c.35.23,2.16,1.69,2.16,1.69l2,.81,1.69.82,1.28,1.34V490l.75,1.51h1.4l1.11-1.63,3.09-3,1.74-1.1,1.23-1,.41-2.27,1.74-2.09,1.93-2.63,1.22-2,1.92-2,.7-2.22,1.28-1.11s.41-.58.82-.58,1.57.12,1.57.12l1,.46,1.4-.64a8.94,8.94,0,0,1,1.28-.64c.17,0,1.57.29,1.57.29s2.62,2.74,2.74,2.92,3.2,3.43,3.2,3.43h38l-2-1.74-1.52-1.4-.93-1.22.12-2.51,1.51-.87.52-1v-2.22l-1-1.74-.81-1.46-.23-1.51,2.91-3,1.75-2.1,1.34-1.63,1.22-1.87-.76-2.56-1.34-1.05-2-1.4-1.34-.93-.06-1.86s1.58-1.93,1.69-2.16,1.58-2.33,1.75-2.5a6,6,0,0,0,.29-1.75c0-.18-.64-2.21-.64-2.21l-2.85-4-.06-3.32s-1.05-1.34-1.23-1.52a3.57,3.57,0,0,0-1.8-.29,14.46,14.46,0,0,0-1.57.93l-.94-1.22a9.34,9.34,0,0,1-1.22-2,7.26,7.26,0,0,0-1.28-1.81h-2L441,423.7l-.94.81-5.3-.17-2.91-2.27-1.51-1.34-1.52-.7-1.51.06-4.08,3.84-.52,3.21-.47,1-1.52.12-1.22-1.57-.87-1.63.23-5.65L417,416.36l.29-3.44L411.43,406l-1.57-3.32-.87-2.33-.06-4.08,1.63-2.33s.7-1.46.93-1.51,1.57-.29,1.57-.29l2.57.29s2.33-2.57,2.44-2.74l.88-1.34.35-2.68-.76-2.1-2.39-2.79-.23-5.36a29.94,29.94,0,0,0,2.79-2.1c0-.17.59-1.69.59-1.69l-.88-1.4-2.33-.7-1.34-.87h-1.57a1.28,1.28,0,0,0-.87,0c-.41.17-1.87-.64-1.87-.64l-.58-1.63-.52-3.38-1.93-2.62-.23-1.63,1.63-.7,1.05-.82-.29-1.92L408,352.86,405.9,351v-1.69l.76-1.75.22-.58-1.74-.06h-5.59l-1.05-1.05H366.11l-1.45-.52-.59-.35H332.91l-1.22-.64h-1.34l-1.87,1.8-2,1.4c-.23.18-4,2-4,2l-1.75,1-1.22.88-1.16.23-1.23-1-2-1.51-10.31.17-.93-.76-.87-.06-.41.88H298l-1.58.7-.23.75-.58,2.45-2.8.23-2.45-.52-4.36-.52-19.58,25.16.35,1.63.7,1.28.87,1.4-1.39.76-1.23.7-.35,1.4.94,1.1s1,.06,1.34.12,3.37,1.34,3.37,1.34v2.91l2.1,1.63Z" style="fill:#b2d67c"/><path d="M407.38,346.63v-2.1l-3.23-3-1.48-1.92v-2.71l-1.14-.61H396.2l-2.53-2-3-2.45s-.61-15.2,0-15.64a4.71,4.71,0,0,0,1.14-1.57v-50.5l.44-1.32.78-1.22,1.84-2,1.48-1.66.18-2-2.88-2.36-1.58-.43-1.22,1-1.22-.26-1.14-1.66v-3.88l.61-1.73,1.23-1.2L391,243l-.35-2.27,1.13-2.45v-5.85l-3.23-6.38v-6.82l1.14-.78.26-1.23-1.4-1.22,1.31-1.31,1.84-.7.26-2.88-3.41-3.32V201l1.05-1.05.44-.78-1.49-.62v-4.1l-4.19-1.49h-3.76l-1.14,1.84-1.92.78-1.75.18-1.48-.35L373,194.5l-3,.53-1,1.4v4.37l.61,1.92-.61.35-1.66.35-.61.61-.7,2.27-3.84,2.62L360.9,210l.7,1.57,2.44-.35,1.4-.26,1.58.88.08,1.13-1.22,1.49-1.57.7-3.06.08-2.45-1.83-2.62-1.14-3.06-.7-3.58,1.05-6,.18-2.8-1.75-1.39-.87-4.9-.53-2.53-.87L329.35,207l-2-.87-4,.08-2.28-1.13-2.62-1.23-8.82-.17-2-.79-2.45-1.22-2.88-.26-2.36.35-2.62.7-2.89-.09-1.74,1-1.93,1.31s-1.22,1.48-1.48,1.75a27,27,0,0,1-2.62,1.39l-3.94.18s-1.57.35-1.83.35-.26.26-1.05.26-4.28-.17-4.28-.17l-2.18-.88-1.05-1.22-1.23-2.8-3-1.4-3.14-1-3.32-.62-4.55.18-2.09,3-2.19,2.53-.44,2.19-.87,1.92-1.66,1.49-1.4.34-3.06.18-3.32,1.22-2.79-1-1.92-.7-2.1-.61-1.22.79,1.13,2.18,1.37,1.4-.67,1-.87,2-.27,1.13-2,.18-1.57.09-2.1,1.31-.78.7V224l1.31,1.22-.79,1.14-1.48-1L225.64,223l-1.33-.7-.95.7.53,1.83,1.22,2.19.7,2.53,1.49,2.36,2.53,2.19.18,1.66,3.23,2.71,2.1.26.26-3,3.67,2.09,2.71.62,1.05,1.13,2.44,1-1,1.4-.87.87,1.39,1.4s.62.7.53,1.23-.35,1.92-.35,1.92l-1.4,1s-.09.91,1.14,1.61a11.25,11.25,0,0,1,2.27,1.83L247,257l-.61.79-1.66.26-1.84.51h-1.4l.26,1,2,.7.35.53-2.27,1.05h-.87l.78,1.22,1.32.35-.7,1-1.4.61,1.92.88h3.93c.35,0,5.33.52,5.33.52l3.93,1.92,2.36,2.36,3.15,1.84,1.57,2.22s1.31,1.88,1.75,2.41a9,9,0,0,1,.7,2.79l-1.31,1.31-2-1.13s-1.31-1.49-1.31-1.92-.26-2.36-.26-2.36l-.79-1.58L256.83,272l-1.57-.7-1.75-1-1-1.92-1.14-.62-3.58-.08c-.35,0-3-.09-3-.09s-1-.61-1.31-.52l-1.92.43-.35,1.31,2.71.92,3.49,1,1.66,1.92,2.19.26L254,275.5l1.4.88,2.44.43s.18.7-.09.79-2.79,1.49-2.79,1.49v1.48l1.31,1.66-.26,2,2.44,1.66,2.19,1.66a10.59,10.59,0,0,1,.87,1.14c.26.44.61,1.31,1,1.31s1.75-.09,1.75-.09l-.79-1.75s.44-1,.7-1.07,1.14.14,1.4,0,.88.55,1,.81a9.13,9.13,0,0,1,.17,2l2.19,2.62,2.8,3.59,2.7,5.24v3l.35,6.73.79,1.83-.09,6.29,6.82,13.63.43,2.1-.08,1.92-1,1a9.4,9.4,0,0,0,1.13,2c.26.09,3.85.53,3.85.53l3.32.52,2.44.53,1.66.09-.35,1.83-.43,1.92.61,2.27s3.32.35,3.76.44,5.06-.17,5.41,0l2.1,1.14,10.57.52,2.28,1.31a7.84,7.84,0,0,0,1.66.7,23.87,23.87,0,0,0,2.53-1.57c.26-.09,2.62-1.14,2.62-1.14l2.27-.87,1.93-2.36,1.57-1.05,34.43.7,1.13.35,32.68.09.61,1.05Z" style="fill:#ccba8b"/><polygon points="434.21 187.08 388.42 187.08 388.42 199.54 374.79 199.54 374.79 213.29 361.13 213.29 361.13 226.22 348.93 226.22 348.93 245.24 394.01 245.24 394.01 231.81 406.25 231.81 406.25 217.84 422.33 217.84 422.33 204.9 434.21 204.9 434.21 187.08" style="fill:#fff"/><polygon points="201 199.54 198.29 199.54 198.29 209.14 187.1 209.14 187.1 226.22 171.03 226.22 171.03 245.24 218.65 245.24 218.65 231.81 233.83 231.81 233.83 217.84 246.52 217.84 246.52 204.9 256.4 204.9 256.4 187.08 201 187.08 201 199.54" style="fill:#fff"/><polygon points="94.5 175.39 81 175.39 67.5 175.39 54 175.39 40.5 175.39 40.5 188.89 54 188.89 67.5 188.89 81 188.89 94.5 188.89 108 188.89 108 175.39 94.5 175.39"/><polygon points="13.5 188.89 0 188.89 0 202.39 13.5 202.39 27 202.39 40.5 202.39 40.5 188.89 27 188.89 13.5 188.89"/><path d="M269.9,175.39H108v27h13.5v13.5H135v13.5h13.5v13.5H162v13.5h67.4v-13.5h13.5v-13.5h13.5v-13.5h13.5v-13.5h13.5v-27Zm-67.5,54H189v-13.5H189v-13.5H189v13.5h13.4Zm-53.9-40.5v13.5h0v-13.5Zm27,54v-13.5h0v-13.5h0v13.5H189v13.5Zm67.4-40.5v13.5H229.4v13.5H215.9v13.5H202.45v-13.5H215.9v-13.5H202.5v-13.5h13.4v-13.5h13.5v13.5h13.5v-13.5h13.5v13.5Z"/><rect x="215.9" y="202.39" width="13.5" height="13.5"/><path d="M445.29,175.39H283.4v27h13.5v13.5h13.5v13.5h13.5v13.5h13.5v13.5h67.39v-13.5h13.5v-13.5h13.5v-13.5h13.5v-13.5h13.5v-27Zm-67.5,54H364.4v-13.5h0v-13.5h0v13.5h13.39Zm-53.89-40.5v13.5h0v-13.5Zm27,54v-13.5h0v-13.5h0v13.5h13.45v13.5Zm67.39-40.5v13.5h-13.5v13.5h-13.5v13.5H377.85v-13.5h13.44v-13.5H377.9v-13.5h13.39v-13.5h13.5v13.5h13.5v-13.5h13.5v13.5Z"/><rect x="391.29" y="202.39" width="13.5" height="13.5"/></svg>
