<svg xmlns="http://www.w3.org/2000/svg" viewBox="0 0 309.09 135"><title>logo</title><rect y="54" width="309" height="9"/><polygon points="282.08 108 282.08 99 273.08 99 273.08 108 273.08 117 273.08 125.96 282.06 125.96 282.06 116.96 291.06 116.96 291.06 108 282.08 108"/><polygon points="168.09 63 168.09 107.96 176.97 107.96 176.97 99 176.97 90 176.97 81 176.97 72 185.97 72 185.97 63 168.09 63"/><polygon points="194.97 125.96 194.97 117 194.97 108 194.97 99 185.97 99 185.97 108 177.07 108 177.07 116.96 186.07 116.96 186.07 125.96 194.97 125.96"/><polygon points="273.08 81 273.08 90 282.08 90 282.08 81 282.08 72 273.08 72 273.08 81"/><polygon points="185.97 81 185.97 90 194.97 90 194.97 81 194.97 72 185.97 72 185.97 81"/><polygon points="259.05 63 259.05 72 250.05 72 250.05 81 250.05 90 259.05 90 259.05 99 250.05 99 250.05 108 250.05 117 259.05 117 259.05 126 250.05 126 241.05 126 241.05 117 241.05 108 241.05 99 241.05 90 241.05 81 241.05 72 241.05 63 226.98 63 226.98 72 235.98 72 235.98 81 235.98 90 226.98 90 226.98 99 235.98 99 235.98 108 235.98 117 235.98 126 226.98 126 226.98 117 226.98 108 226.98 99 217.98 99 217.98 108 217.98 117 217.98 126 208.98 126 208.98 117 208.98 108 208.98 99 208.98 90 208.98 81 208.98 72 217.98 72 217.98 63 194.97 63 194.97 72 203.97 72 203.97 81 203.97 90 203.97 99 203.97 108 203.97 117 203.97 126 195.09 126 195.09 134.96 204.09 134.96 204.09 135 273.06 135 273.06 126 264.08 126 264.08 117 264.08 108 264.08 99 264.08 90 264.08 81 264.08 72 273.08 72 273.08 63 259.05 63"/><polygon points="217.98 90 226.98 90 226.98 81 226.98 72 217.98 72 217.98 81 217.98 90"/><polygon points="282.08 63 282.08 72 291.08 72 291.08 81 291.08 90 291.08 99 291.08 107.96 300.08 107.96 300.08 63 282.08 63"/><polygon points="36.01 125.96 36.01 117 27.01 117 27.01 108 27.01 99 27.01 90 27.01 81 27.01 72 27.01 63 9.01 63 9.01 107.96 17.98 107.96 17.98 116.96 26.98 116.96 26.98 125.96 36.01 125.96"/><polygon points="70.89 90 79.89 90 79.89 81 79.89 72 70.89 72 70.89 81 70.89 90"/><polygon points="45.01 108 45.01 99 36.01 99 36.01 108 36.01 117 45.01 117 45.01 108"/><polygon points="45.01 81 45.01 72 36.01 72 36.01 81 36.01 90 45.01 90 45.01 81"/><polygon points="123.01 63 123.01 72 123.01 81 123.01 90 123.01 99 114.01 99 114.01 108 114.01 117 114.01 125.96 122.97 125.96 122.97 116.96 131.97 116.96 131.97 107.96 141 107.96 141 63 123.01 63"/><polygon points="114.01 81 114.01 72 114.01 63 105.01 63 105.01 72 105.01 81 105.01 90 105.01 99 114.01 99 114.01 90 114.01 81"/><polygon points="96.01 90 96.01 81 96.01 72 96.01 63 79.89 63 79.89 72 88.89 72 88.89 81 88.89 90 88.89 99 88.89 108 88.89 117 88.89 126 79.89 126 79.89 117 79.89 108 79.89 99 70.89 99 70.89 108 70.89 117 70.89 126 61.89 126 61.89 117 61.89 108 61.89 99 61.89 90 61.89 81 61.89 72 70.89 72 70.89 63 54.01 63 54.01 72 54.01 81 54.01 90 54.01 99 54.01 108 54.01 117 54.01 126 45.01 126 36.01 126 36.01 134.96 45.01 134.96 45.01 135 113.97 135 113.97 126 105.01 126 105.01 117 105.01 108 105.01 99 96.01 99 96.01 90"/><polygon points="159.55 63 159.04 63 150 63 149.55 63 141 63 141 72 149.55 72 150 72 159.04 72 159.55 72 168.04 72 168.04 63 159.55 63"/><polygon points="255.09 0 246.09 0 246.09 9 255.09 9 264.08 9 264.08 0 255.09 0"/><rect x="264.09" y="9" width="9" height="9"/><rect x="273.09" y="18" width="9" height="9"/><rect x="282.09" y="27" width="9" height="9"/><rect x="291.09" y="36" width="9" height="9"/><rect x="300.09" y="45" width="9" height="9"/><polygon points="54.01 0 45.01 0 45.01 9 54.01 9 63.01 9 63.01 0 54.01 0"/><rect x="36.01" y="9" width="9" height="9"/><rect x="27.01" y="18" width="9" height="9"/><rect x="18.01" y="27" width="9" height="9"/><rect x="9.01" y="36" width="9" height="9"/><rect y="45" width="9" height="9"/></svg>