<svg xmlns="http://www.w3.org/2000/svg" viewBox="0 0 458.79 187.37"><title>logo</title><polygon points="434.21 11.68 388.42 11.68 388.42 24.15 374.79 24.15 374.79 37.9 361.13 37.9 361.13 50.83 348.93 50.83 348.93 69.85 394.01 69.85 394.01 56.42 406.25 56.42 406.25 42.44 422.33 42.44 422.33 29.51 434.21 29.51 434.21 11.68" style="fill:#fff"/><polygon points="201 24.15 198.29 24.15 198.29 33.75 187.1 33.75 187.1 50.83 171.03 50.83 171.03 69.85 218.65 69.85 218.65 56.42 233.83 56.42 233.83 42.44 246.52 42.44 246.52 29.51 256.4 29.51 256.4 11.68 201 11.68 201 24.15" style="fill:#fff"/><polygon points="94.5 0 81 0 67.5 0 54 0 40.5 0 40.5 13.5 54 13.5 67.5 13.5 81 13.5 94.5 13.5 108 13.5 108 0 94.5 0"/><polygon points="13.5 13.5 0 13.5 0 27 13.5 27 27 27 40.5 27 40.5 13.5 27 13.5 13.5 13.5"/><path d="M269.9,0H108V27h13.5V40.5H135V54h13.5V67.5H162V81h67.4V67.5h13.5V54h13.5V40.5h13.5V27h13.5V0ZM202.4,54H189V40.5H189V27H189V40.5h13.4ZM148.5,13.5V27h0V13.5Zm27,54V54h0V40.5h0V54H189V67.5ZM242.9,27V40.5H229.4V54H215.9V67.5H202.45V54H215.9V40.5H202.5V27h13.4V13.5h13.5V27h13.5V13.5h13.5V27Z"/><rect x="215.9" y="27" width="13.5" height="13.5"/><path d="M445.29,0H283.4V27h13.5V40.5h13.5V54h13.5V67.5h13.5V81h67.39V67.5h13.5V54h13.5V40.5h13.5V27h13.5V0Zm-67.5,54H364.4V40.5h0V27h0V40.5h13.39ZM323.9,13.5V27h0V13.5Zm27,54V54h0V40.5h0V54h13.45V67.5ZM418.29,27V40.5h-13.5V54h-13.5V67.5H377.85V54h13.44V40.5H377.9V27h13.39V13.5h13.5V27h13.5V13.5h13.5V27Z"/><rect x="391.29" y="27" width="13.5" height="13.5"/><path d="M44.36,111.37H70.84a14.28,14.28,0,0,1,5.2,1,12.57,12.57,0,0,1,4.28,2.72,13.25,13.25,0,0,1,2.88,4.24,13.66,13.66,0,0,1,1.08,5.52v7.12a9.24,9.24,0,0,1-1.08,4.72,10,10,0,0,1-2.36,2.84,12.61,12.61,0,0,1-3.44,1.8,13,13,0,0,1,3.44,2.12,12.47,12.47,0,0,1,2.36,3,9.1,9.1,0,0,1,1.08,4.6v6.8a14.05,14.05,0,0,1-1,5.12,13,13,0,0,1-2.72,4.32,13.46,13.46,0,0,1-4.24,3,13.19,13.19,0,0,1-5.52,1.12H44.36ZM71,138V118H57.64v20Zm0,26.72v-20H57.64v20Z" style="fill:#231f20"/><path d="M104.8,132.65a4.54,4.54,0,0,0-1.64,3.84H96.68a11.36,11.36,0,0,1,3.36-8.44q3.36-3.32,10.4-3.32h12.32a13.88,13.88,0,0,1,5.76,1.16,13.4,13.4,0,0,1,7.12,7.48,13.83,13.83,0,0,1,1,5v33H110.12a14,14,0,0,1-5.16-1,12.61,12.61,0,0,1-4.28-2.76,13.1,13.1,0,0,1-2.92-4.36,14.48,14.48,0,0,1-1.08-5.68v-7.12a10.48,10.48,0,0,1,1.16-4.88,13.48,13.48,0,0,1,3-3.92,14.34,14.34,0,0,1,4.28-2.64,13.23,13.23,0,0,1,5-1h13.2v-6.64l-12.72-.08Q106.43,131.37,104.8,132.65ZM110,144.81v19.92h13.36V144.81Z" style="fill:#231f20"/><path d="M190,173.61a11.5,11.5,0,0,1-1.2,5,15.84,15.84,0,0,1-3.16,4.4,16.8,16.8,0,0,1-4.44,3.12,11.5,11.5,0,0,1-5,1.2H163.8a12.2,12.2,0,0,1-5-1.11,15.56,15.56,0,0,1-4.4-2.92,15.12,15.12,0,0,1-3.12-4.22,10.91,10.91,0,0,1-1.2-5h6.48a5.34,5.34,0,0,0,.64,2.56,6.88,6.88,0,0,0,1.68,2.08,8.37,8.37,0,0,0,2.4,1.4,7.67,7.67,0,0,0,2.72.52h12.72V168.49H163.8a12.81,12.81,0,0,1-5.36-1.12,14.87,14.87,0,0,1-4.36-3,13.57,13.57,0,0,1-3-4.28,12.43,12.43,0,0,1-1.08-5.08V124.73h13.28v37.12h13.36V124.73H190Z" style="fill:#231f20"/><path d="M255.16,111.37a11.77,11.77,0,0,1,4.88,1.12,15.94,15.94,0,0,1,4.44,3,16.87,16.87,0,0,1,3.24,4.32,10.85,10.85,0,0,1,1.28,5.08v46.48c-.59,0-1.54,0-2.84,0s-2.68,0-4.12,0h-3.92c-1.23,0-2.06,0-2.48-.08V144.73H242.52v26.64H229.24V124.89a11.27,11.27,0,0,1,1.24-5.12,15.09,15.09,0,0,1,3.2-4.32,16.2,16.2,0,0,1,4.4-3,11.28,11.28,0,0,1,4.76-1.12Zm.48,26.64V118H242.52v20Z" style="fill:#231f20"/><path d="M282.36,124.73h13.28v6.56a23.44,23.44,0,0,1,5-3.28,39,39,0,0,1,6.24-2.24,32.88,32.88,0,0,1,8.76-1v6.64a27.13,27.13,0,0,0-8.16,1.16,41.09,41.09,0,0,0-6.33,2.51,33.94,33.94,0,0,0-5.51,3.67v32.66H282.36Z" style="fill:#231f20"/><path d="M335.64,164.73H348a7.72,7.72,0,0,0,2.8-.52,8.22,8.22,0,0,0,2.39-1.4,7.07,7.07,0,0,0,1.69-2.08,5.6,5.6,0,0,0,.64-2.64h6.56a11.06,11.06,0,0,1-1.2,5,15.34,15.34,0,0,1-3.16,4.26,15.07,15.07,0,0,1-4.44,2.92,12.72,12.72,0,0,1-5,1.07h-12.4a11.68,11.68,0,0,1-5.24-1.2,14.55,14.55,0,0,1-4.28-3.16,15.27,15.27,0,0,1-2.92-4.44,12.33,12.33,0,0,1-1.08-5v-19.2a12.49,12.49,0,0,1,1.08-5,14.27,14.27,0,0,1,3-4.4,14.88,14.88,0,0,1,4.32-3.08,11.88,11.88,0,0,1,5.16-1.16h12.4a13.12,13.12,0,0,1,5.44,1.16,14.12,14.12,0,0,1,4.4,3.08,15.08,15.08,0,0,1,2.92,4.4,12.49,12.49,0,0,1,1.08,5v13H335.64Zm13.12-33.36H335.64v13.36h13.12Z" style="fill:#231f20"/><path d="M383.68,132.65a4.54,4.54,0,0,0-1.64,3.84h-6.48a11.36,11.36,0,0,1,3.36-8.44q3.36-3.32,10.4-3.32h12.32a13.88,13.88,0,0,1,5.76,1.16,13.4,13.4,0,0,1,7.12,7.48,13.83,13.83,0,0,1,1,5v33H389a13.91,13.91,0,0,1-5.16-1,12.61,12.61,0,0,1-4.28-2.76,13.1,13.1,0,0,1-2.92-4.36,14.48,14.48,0,0,1-1.08-5.68v-7.12a10.36,10.36,0,0,1,1.16-4.88,13.48,13.48,0,0,1,3-3.92,14.34,14.34,0,0,1,4.28-2.64,13.23,13.23,0,0,1,5-1h13.2v-6.64l-12.72-.08Q385.31,131.37,383.68,132.65Zm5.16,12.16v19.92H402.2V144.81Z" style="fill:#231f20"/></svg>